<?xml version="1.0" encoding="UTF-8"?>
<svg id="Camada_2" data-name="Camada 2" xmlns="http://www.w3.org/2000/svg" viewBox="0 0 30 30">
  <defs>
    <style>
      .cls-1 {
        fill: #1f2b8c;
      }

      .cls-2 {
        fill: #fff;
      }

      .cls-3 {
        fill: #ff5b04;
      }
    </style>
  </defs>
  <g id="Camada_1-2" data-name="Camada 1">
    <g>
      <rect class="cls-1" width="30" height="30"/>
      <g>
        <path class="cls-2" d="M13.6,6.88l.52.78.94,1.42.07.11.35.54.74,1.12.21.31.44.66,2.16,3.26s0,0,0,0c.15.18.3.38.42.58l1.33-.88-.53-.79h0s-1.52-2.27-1.52-2.27l-1.35-2.02-.17-.25-.78-1.17-.43-.64-.94-1.41-.52-.79-.94-1.41-.94,1.41.94,1.42Z"/>
        <path class="cls-2" d="M8.88,22.67s-.01-.02-.02-.03c-.34-.49-.63-1.02-.85-1.59,0-.01-.01-.03-.01-.04-.1-.27-.19-.54-.26-.82,0-.02,0-.03-.01-.05-.15-.59-.23-1.2-.23-1.84,0-.24.01-.49.03-.72,0-.03,0-.06,0-.08.09-.89.34-1.74.72-2.51.06-.12.12-.24.18-.35,0,0,0,0,0,0,0,0,0,0,0,0,0,0,0,0,0,0,.18-.33.39-.65.63-.95h0s.22-.34.22-.34h0s2.33-3.52,2.33-3.52l.08-.12-.95-1.43-3.01,4.5-.61.92c-.79,1.35-1.24,2.92-1.24,4.59,0,.05,0,.11,0,.16,0,0,0,.01,0,.02,0,.44.05.87.12,1.3.03.21.08.42.13.63.12.49.27.96.46,1.42.11.26.23.5.35.75.28.52.6,1.01.98,1.47.46.57.99,1.08,1.58,1.53l.85-1.33c-.57-.45-1.07-.97-1.5-1.57Z"/>
        <path class="cls-3" d="M19.79,16.32c.26.6.41,1.26.43,1.95,0,.04,0,.08,0,.12,0,.76-.16,1.48-.46,2.13-.12.26-.25.5-.41.73-.48.72-1.14,1.31-1.91,1.71l.63,1.38c.84-.42,1.59-1.01,2.18-1.73.17-.2.33-.42.47-.64.35-.53.62-1.12.8-1.74.1-.33.17-.68.22-1.03h0c.04-.29.06-.59.06-.89,0-1.03-.23-2.01-.65-2.89l-1.33.87-.04.03Z"/>
        <path class="cls-2" d="M15.08,25.04c.81,0,1.59-.14,2.31-.41l-.63-1.37c-.53.19-1.1.29-1.7.29-2.13,0-3.95-1.29-4.74-3.12-.09-.22-.17-.45-.24-.68h-1.57l.08.37c.17.63.44,1.22.77,1.76,1.19,1.9,3.3,3.17,5.71,3.17Z"/>
        <path class="cls-2" d="M11.42,11.7l-1.68,2.52s0,0,0,0l-.48.72s0,0,0,.01c-.57.99-.89,2.13-.89,3.35,0,.23.01.46.03.69h1.56c-.02-.2-.04-.41-.04-.61,0-.09,0-.18,0-.26.04-.83.28-1.61.67-2.29,0,0,0,0,0,0,.11-.2.24-.39.38-.57,0,0,0,0,0,0l2.21-3.34-.04-.06-.47-.71-.02-.03-.42-.63-.76,1.14-.05.07Z"/>
        <path class="cls-2" d="M12.82,16.64l1.74-2.63h0s-.03-.05-.03-.05l-.43-.64-.5-.75-.78,1.17h0s-1.19,1.79-1.19,1.79c0,0,0,0,0,0l-.51.77c-.32.61-.49,1.3-.49,2.03,0,.46.07.91.2,1.32.32,1.02,1.01,1.88,1.9,2.43l.7-1.33c-.75-.51-1.24-1.37-1.24-2.34,0-.48.12-.93.33-1.32.08-.16.18-.31.29-.45Z"/>
        <path class="cls-2" d="M14.09,3.25l.02.03.93,1.41.52.79.94,1.42.43.64.94,1.43.59.89,2.51,3.8c.24.31.45.63.64.97.46.82.76,1.75.88,2.72.04.31.06.62.06.93,0,.62-.07,1.22-.22,1.79-.08.32-.17.62-.29.92-.23.58-.52,1.13-.88,1.64-.15.21-.31.42-.49.62-1.38,1.58-3.42,2.58-5.68,2.58-1.48,0-2.87-.43-4.04-1.17l-.84,1.31s0,0,0,0c.38.24.79.46,1.21.64,1.12.49,2.36.77,3.67.77,1.58,0,3.07-.4,4.37-1.11.82-.45,1.56-1.02,2.2-1.69.18-.19.35-.38.51-.58.37-.46.7-.96.98-1.49.14-.26.26-.52.37-.79.27-.67.47-1.37.58-2.11.04-.24.06-.49.08-.73v-1.22c-.09-1.42-.51-2.75-1.18-3.92l-.68-1.02s0,0,0,0l-3.45-5.16-.94-1.41-.43-.64-.94-1.4-.53-.79-.49-.74h-.92l-.44.65Z"/>
        <path class="cls-2" d="M12.49,9.54l.18.28.73,1.1.02.03.2.3.02.03.27.4.02.03.12.18.02.03.87,1.31s.07.1.07.1l.41.62.03.05,1.66,2.5c.2.22.37.47.49.74.16.36.25.75.25,1.17,0,.17-.02.34-.04.5h0c-.23,1.33-1.39,2.33-2.78,2.33-.32,0-.64-.05-.93-.16l-.7,1.33c.5.2,1.05.31,1.62.31,1.64,0,3.07-.9,3.83-2.23.15-.26.27-.53.36-.81.14-.42.21-.88.21-1.35,0-.69-.16-1.35-.45-1.93,0,0,0,0,0,0l-.06-.09s0,0,0,0l-.47-.7s0,0,0,0l-.1-.15-1.18-1.77-1.19-1.78h0s-.16-.23-.16-.23l-.58-.86h0l-.02-.03-.2-.3-.43-.64-.39-.59-.56-.83-.52-.78-.95-1.42-.95,1.42.95,1.43.33.5Z"/>
        <path class="cls-3" d="M15.09,15.7l1.13,1.7.09.13c.06.1.1.2.14.31.05.14.07.29.07.45,0,.57-.31,1.06-.78,1.31-.21.12-.46.18-.72.18-.21,0-.42-.04-.6-.13-.07-.03-.14-.07-.2-.11-.03-.02-.07-.04-.1-.07-.27-.21-.47-.5-.56-.85-.02-.1-.04-.21-.04-.32,0,0,0-.02,0-.03,0-.13.02-.25.05-.37.04-.14.09-.27.16-.39,0,0,0,0,0-.01l.08-.11s0,0,0-.01l1.13-1.69h.13Z"/>
        <line class="cls-1" x1="13.75" y1="17.52" x2="13.74" y2="17.53"/>
        <line class="cls-1" x1="13.83" y1="17.39" x2="13.82" y2="17.4"/>
      </g>
    </g>
  </g>
</svg>